<?xml version="1.0" encoding="UTF-8" standalone="no"?>
<!DOCTYPE svg PUBLIC "-//W3C//DTD SVG 1.1//EN"
 "http://www.w3.org/Graphics/SVG/1.1/DTD/svg11.dtd">
<!-- Generated by graphviz version 2.43.0 (0)
 -->
<!-- Title: pt Pages: 1 -->
<svg width="5031pt" height="651pt"
 viewBox="0.00 0.00 5031.50 651.00" xmlns="http://www.w3.org/2000/svg" xmlns:xlink="http://www.w3.org/1999/xlink">
<g id="graph0" class="graph" transform="scale(1 1) rotate(0) translate(4 647)">
<title>pt</title>
<polygon fill="white" stroke="transparent" points="-4,4 -4,-647 5027.5,-647 5027.5,4 -4,4"/>
<!-- 135410864420368 -->
<g id="node1" class="node">
<title>135410864420368</title>
<ellipse fill="none" stroke="black" cx="27" cy="-562" rx="27" ry="18"/>
<text text-anchor="middle" x="27" y="-558.5" font-family="Times,serif" font-size="15.00">and</text>
</g>
<!-- 135410864132288 -->
<g id="node2" class="node">
<title>135410864132288</title>
<ellipse fill="none" stroke="black" cx="176.86" cy="-589" rx="86.72" ry="18"/>
<text text-anchor="middle" x="176.86" y="-585.5" font-family="Times,serif" font-size="15.00">GC/SetGCHandle</text>
</g>
<!-- 135410864420368&#45;&#45;135410864132288 -->
<g id="edge1" class="edge">
<title>135410864420368&#45;&#45;135410864132288</title>
<path fill="none" stroke="black" d="M53.42,-566.64C69.35,-569.55 90.67,-573.44 111.05,-577.17"/>
</g>
<!-- 135410864132528 -->
<g id="node3" class="node">
<title>135410864132528</title>
<ellipse fill="none" stroke="black" cx="176.86" cy="-535" rx="27" ry="18"/>
<text text-anchor="middle" x="176.86" y="-531.5" font-family="Times,serif" font-size="15.00">and</text>
</g>
<!-- 135410864420368&#45;&#45;135410864132528 -->
<g id="edge84" class="edge">
<title>135410864420368&#45;&#45;135410864132528</title>
<path fill="none" stroke="black" d="M53.42,-557.36C80.5,-552.41 123.13,-544.63 150.28,-539.67"/>
</g>
<!-- 135410864132624 -->
<g id="node4" class="node">
<title>135410864132624</title>
<ellipse fill="none" stroke="black" cx="346.97" cy="-562" rx="47.01" ry="18"/>
<text text-anchor="middle" x="346.97" y="-558.5" font-family="Times,serif" font-size="15.00">xor loop</text>
</g>
<!-- 135410864132528&#45;&#45;135410864132624 -->
<g id="edge4" class="edge">
<title>135410864132528&#45;&#45;135410864132624</title>
<path fill="none" stroke="black" d="M203.39,-539.1C229.85,-543.35 271.65,-550.06 303.17,-555.13"/>
</g>
<!-- 135410864132432 -->
<g id="node7" class="node">
<title>135410864132432</title>
<ellipse fill="none" stroke="black" cx="346.97" cy="-508" rx="47.01" ry="18"/>
<text text-anchor="middle" x="346.97" y="-504.5" font-family="Times,serif" font-size="15.00">xor loop</text>
</g>
<!-- 135410864132528&#45;&#45;135410864132432 -->
<g id="edge83" class="edge">
<title>135410864132528&#45;&#45;135410864132432</title>
<path fill="none" stroke="black" d="M203.39,-530.9C229.85,-526.65 271.65,-519.94 303.17,-514.87"/>
</g>
<!-- 135410864132768 -->
<g id="node5" class="node">
<title>135410864132768</title>
<ellipse fill="none" stroke="black" cx="569.2" cy="-597" rx="138.95" ry="18"/>
<text text-anchor="middle" x="569.2" y="-593.5" font-family="Times,serif" font-size="15.00">GC/SampledObjectAllocation</text>
</g>
<!-- 135410864132624&#45;&#45;135410864132768 -->
<g id="edge2" class="edge">
<title>135410864132624&#45;&#45;135410864132768</title>
<path fill="none" stroke="black" d="M390.96,-568.83C416.49,-572.89 449.82,-578.19 480.67,-583.09"/>
</g>
<!-- 135410864132864 -->
<g id="node6" class="node">
<title>135410864132864</title>
<ellipse fill="black" stroke="black" cx="569.2" cy="-558" rx="2.7" ry="2.7"/>
</g>
<!-- 135410864132624&#45;&#45;135410864132864 -->
<g id="edge3" class="edge">
<title>135410864132624&#45;&#45;135410864132864</title>
<path fill="none" stroke="black" d="M394.41,-561.16C453.97,-560.07 551.41,-558.3 566.28,-558.03"/>
</g>
<!-- 135410864133056 -->
<g id="node8" class="node">
<title>135410864133056</title>
<ellipse fill="none" stroke="black" cx="569.2" cy="-512" rx="27" ry="18"/>
<text text-anchor="middle" x="569.2" y="-508.5" font-family="Times,serif" font-size="15.00">and</text>
</g>
<!-- 135410864132432&#45;&#45;135410864133056 -->
<g id="edge79" class="edge">
<title>135410864132432&#45;&#45;135410864133056</title>
<path fill="none" stroke="black" d="M394.41,-508.84C439.33,-509.66 505.81,-510.87 542.14,-511.53"/>
</g>
<!-- 135410864288432 -->
<g id="node83" class="node">
<title>135410864288432</title>
<ellipse fill="none" stroke="black" cx="569.2" cy="-458" rx="27" ry="18"/>
<text text-anchor="middle" x="569.2" y="-454.5" font-family="Times,serif" font-size="15.00">seq</text>
</g>
<!-- 135410864132432&#45;&#45;135410864288432 -->
<g id="edge82" class="edge">
<title>135410864132432&#45;&#45;135410864288432</title>
<path fill="none" stroke="black" d="M387.85,-498.95C433.1,-488.67 505.49,-472.24 543.33,-463.65"/>
</g>
<!-- 135410864133296 -->
<g id="node9" class="node">
<title>135410864133296</title>
<ellipse fill="none" stroke="black" cx="835.21" cy="-586" rx="27" ry="18"/>
<text text-anchor="middle" x="835.21" y="-582.5" font-family="Times,serif" font-size="15.00">xor</text>
</g>
<!-- 135410864133056&#45;&#45;135410864133296 -->
<g id="edge9" class="edge">
<title>135410864133056&#45;&#45;135410864133296</title>
<path fill="none" stroke="black" d="M594.56,-518.83C644.86,-532.93 759.66,-565.1 809.9,-579.19"/>
</g>
<!-- 135410864133344 -->
<g id="node14" class="node">
<title>135410864133344</title>
<ellipse fill="none" stroke="black" cx="835.21" cy="-512" rx="47.01" ry="18"/>
<text text-anchor="middle" x="835.21" y="-508.5" font-family="Times,serif" font-size="15.00">xor loop</text>
</g>
<!-- 135410864133056&#45;&#45;135410864133344 -->
<g id="edge78" class="edge">
<title>135410864133056&#45;&#45;135410864133344</title>
<path fill="none" stroke="black" d="M596.48,-512C641.09,-512 732.17,-512 787.74,-512"/>
</g>
<!-- 135410864133584 -->
<g id="node10" class="node">
<title>135410864133584</title>
<ellipse fill="black" stroke="black" cx="1009.49" cy="-625" rx="2.7" ry="2.7"/>
</g>
<!-- 135410864133296&#45;&#45;135410864133584 -->
<g id="edge5" class="edge">
<title>135410864133296&#45;&#45;135410864133584</title>
<path fill="none" stroke="black" d="M860.89,-591.59C904.81,-601.53 993.19,-621.54 1006.73,-624.6"/>
</g>
<!-- 135410864133680 -->
<g id="node11" class="node">
<title>135410864133680</title>
<ellipse fill="none" stroke="black" cx="1009.49" cy="-586" rx="47.01" ry="18"/>
<text text-anchor="middle" x="1009.49" y="-582.5" font-family="Times,serif" font-size="15.00">xor loop</text>
</g>
<!-- 135410864133296&#45;&#45;135410864133680 -->
<g id="edge8" class="edge">
<title>135410864133296&#45;&#45;135410864133680</title>
<path fill="none" stroke="black" d="M862.37,-586C888.73,-586 929.96,-586 961.91,-586"/>
</g>
<!-- 135410864133920 -->
<g id="node12" class="node">
<title>135410864133920</title>
<ellipse fill="none" stroke="black" cx="1225.46" cy="-625" rx="105.74" ry="18"/>
<text text-anchor="middle" x="1225.46" y="-621.5" font-family="Times,serif" font-size="15.00">AssemblyLoader/Stop</text>
</g>
<!-- 135410864133680&#45;&#45;135410864133920 -->
<g id="edge6" class="edge">
<title>135410864133680&#45;&#45;135410864133920</title>
<path fill="none" stroke="black" d="M1052.51,-593.66C1080.99,-598.85 1119.35,-605.84 1152.62,-611.91"/>
</g>
<!-- 135410864134016 -->
<g id="node13" class="node">
<title>135410864134016</title>
<ellipse fill="black" stroke="black" cx="1225.46" cy="-586" rx="2.7" ry="2.7"/>
</g>
<!-- 135410864133680&#45;&#45;135410864134016 -->
<g id="edge7" class="edge">
<title>135410864133680&#45;&#45;135410864134016</title>
<path fill="none" stroke="black" d="M1056.92,-586C1114.93,-586 1208.37,-586 1222.62,-586"/>
</g>
<!-- 135410864134064 -->
<g id="node15" class="node">
<title>135410864134064</title>
<ellipse fill="none" stroke="black" cx="1009.49" cy="-512" rx="27" ry="18"/>
<text text-anchor="middle" x="1009.49" y="-508.5" font-family="Times,serif" font-size="15.00">and</text>
</g>
<!-- 135410864133344&#45;&#45;135410864134064 -->
<g id="edge73" class="edge">
<title>135410864133344&#45;&#45;135410864134064</title>
<path fill="none" stroke="black" d="M882.83,-512C914.72,-512 955.83,-512 982.18,-512"/>
</g>
<!-- 135410864290448 -->
<g id="node79" class="node">
<title>135410864290448</title>
<ellipse fill="none" stroke="black" cx="1009.49" cy="-412" rx="27" ry="18"/>
<text text-anchor="middle" x="1009.49" y="-408.5" font-family="Times,serif" font-size="15.00">seq</text>
</g>
<!-- 135410864133344&#45;&#45;135410864290448 -->
<g id="edge77" class="edge">
<title>135410864133344&#45;&#45;135410864290448</title>
<path fill="none" stroke="black" d="M862,-497.03C896.64,-476.92 957.44,-441.63 988.7,-423.49"/>
</g>
<!-- 135410864134304 -->
<g id="node16" class="node">
<title>135410864134304</title>
<ellipse fill="none" stroke="black" cx="1225.46" cy="-547" rx="47.01" ry="18"/>
<text text-anchor="middle" x="1225.46" y="-543.5" font-family="Times,serif" font-size="15.00">xor loop</text>
</g>
<!-- 135410864134064&#45;&#45;135410864134304 -->
<g id="edge12" class="edge">
<title>135410864134064&#45;&#45;135410864134304</title>
<path fill="none" stroke="black" d="M1035.87,-516.15C1071.85,-522.04 1138.14,-532.88 1181.77,-540.02"/>
</g>
<!-- 135410864134400 -->
<g id="node19" class="node">
<title>135410864134400</title>
<ellipse fill="none" stroke="black" cx="1225.46" cy="-493" rx="47.01" ry="18"/>
<text text-anchor="middle" x="1225.46" y="-489.5" font-family="Times,serif" font-size="15.00">xor loop</text>
</g>
<!-- 135410864134064&#45;&#45;135410864134400 -->
<g id="edge72" class="edge">
<title>135410864134064&#45;&#45;135410864134400</title>
<path fill="none" stroke="black" d="M1036.3,-509.71C1071.65,-506.57 1135.67,-500.88 1179.12,-497.03"/>
</g>
<!-- 135410864134544 -->
<g id="node17" class="node">
<title>135410864134544</title>
<ellipse fill="none" stroke="black" cx="1495.64" cy="-582" rx="101.41" ry="18"/>
<text text-anchor="middle" x="1495.64" y="-578.5" font-family="Times,serif" font-size="15.00">Procfiler/MethodEnd</text>
</g>
<!-- 135410864134304&#45;&#45;135410864134544 -->
<g id="edge10" class="edge">
<title>135410864134304&#45;&#45;135410864134544</title>
<path fill="none" stroke="black" d="M1270.45,-552.74C1309.16,-557.79 1366.51,-565.28 1413.52,-571.41"/>
</g>
<!-- 135410864134640 -->
<g id="node18" class="node">
<title>135410864134640</title>
<ellipse fill="black" stroke="black" cx="1495.64" cy="-543" rx="2.7" ry="2.7"/>
</g>
<!-- 135410864134304&#45;&#45;135410864134640 -->
<g id="edge11" class="edge">
<title>135410864134304&#45;&#45;135410864134640</title>
<path fill="none" stroke="black" d="M1272.87,-546.31C1344.23,-545.24 1474.58,-543.3 1492.56,-543.03"/>
</g>
<!-- 135410864134832 -->
<g id="node20" class="node">
<title>135410864134832</title>
<ellipse fill="none" stroke="black" cx="1495.64" cy="-497" rx="47.01" ry="18"/>
<text text-anchor="middle" x="1495.64" y="-493.5" font-family="Times,serif" font-size="15.00">xor loop</text>
</g>
<!-- 135410864134400&#45;&#45;135410864134832 -->
<g id="edge15" class="edge">
<title>135410864134400&#45;&#45;135410864134832</title>
<path fill="none" stroke="black" d="M1272.87,-493.69C1322.04,-494.43 1399.23,-495.58 1448.35,-496.31"/>
</g>
<!-- 135410864134928 -->
<g id="node23" class="node">
<title>135410864134928</title>
<ellipse fill="none" stroke="black" cx="1495.64" cy="-443" rx="27" ry="18"/>
<text text-anchor="middle" x="1495.64" y="-439.5" font-family="Times,serif" font-size="15.00">seq</text>
</g>
<!-- 135410864134400&#45;&#45;135410864134928 -->
<g id="edge71" class="edge">
<title>135410864134400&#45;&#45;135410864134928</title>
<path fill="none" stroke="black" d="M1268.37,-485.19C1324.79,-474.67 1423.41,-456.28 1469.53,-447.68"/>
</g>
<!-- 135410864135072 -->
<g id="node21" class="node">
<title>135410864135072</title>
<ellipse fill="none" stroke="black" cx="1738.71" cy="-532" rx="105.74" ry="18"/>
<text text-anchor="middle" x="1738.71" y="-528.5" font-family="Times,serif" font-size="15.00">Procfiler/MethodStart</text>
</g>
<!-- 135410864134832&#45;&#45;135410864135072 -->
<g id="edge13" class="edge">
<title>135410864134832&#45;&#45;135410864135072</title>
<path fill="none" stroke="black" d="M1540.02,-503.3C1572.69,-508.04 1618.4,-514.68 1657.65,-520.38"/>
</g>
<!-- 135410864135168 -->
<g id="node22" class="node">
<title>135410864135168</title>
<ellipse fill="black" stroke="black" cx="1738.71" cy="-493" rx="2.7" ry="2.7"/>
</g>
<!-- 135410864134832&#45;&#45;135410864135168 -->
<g id="edge14" class="edge">
<title>135410864134832&#45;&#45;135410864135168</title>
<path fill="none" stroke="black" d="M1543.12,-496.23C1608.25,-495.15 1720.47,-493.29 1735.93,-493.03"/>
</g>
<!-- 135410864135408 -->
<g id="node24" class="node">
<title>135410864135408</title>
<ellipse fill="none" stroke="black" cx="1738.71" cy="-447" rx="27" ry="18"/>
<text text-anchor="middle" x="1738.71" y="-443.5" font-family="Times,serif" font-size="15.00">xor</text>
</g>
<!-- 135410864134928&#45;&#45;135410864135408 -->
<g id="edge20" class="edge">
<title>135410864134928&#45;&#45;135410864135408</title>
<path fill="none" stroke="black" d="M1522.9,-443.44C1569.27,-444.21 1665.14,-445.8 1711.49,-446.56"/>
</g>
<!-- 135410864135504 -->
<g id="node29" class="node">
<title>135410864135504</title>
<ellipse fill="none" stroke="black" cx="1738.71" cy="-393" rx="27" ry="18"/>
<text text-anchor="middle" x="1738.71" y="-389.5" font-family="Times,serif" font-size="15.00">xor</text>
</g>
<!-- 135410864134928&#45;&#45;135410864135504 -->
<g id="edge70" class="edge">
<title>135410864134928&#45;&#45;135410864135504</title>
<path fill="none" stroke="black" d="M1521.53,-437.84C1567.73,-428.26 1666.23,-407.83 1712.6,-398.21"/>
</g>
<!-- 135410864135648 -->
<g id="node25" class="node">
<title>135410864135648</title>
<ellipse fill="black" stroke="black" cx="1907.34" cy="-482" rx="2.7" ry="2.7"/>
</g>
<!-- 135410864135408&#45;&#45;135410864135648 -->
<g id="edge16" class="edge">
<title>135410864135408&#45;&#45;135410864135648</title>
<path fill="none" stroke="black" d="M1764.66,-452.24C1807.15,-461.16 1890.33,-478.64 1904.32,-481.58"/>
</g>
<!-- 135410864135744 -->
<g id="node26" class="node">
<title>135410864135744</title>
<ellipse fill="none" stroke="black" cx="1907.34" cy="-443" rx="27" ry="18"/>
<text text-anchor="middle" x="1907.34" y="-439.5" font-family="Times,serif" font-size="15.00">xor</text>
</g>
<!-- 135410864135408&#45;&#45;135410864135744 -->
<g id="edge19" class="edge">
<title>135410864135408&#45;&#45;135410864135744</title>
<path fill="none" stroke="black" d="M1765.75,-446.38C1796.96,-445.63 1848.96,-444.38 1880.21,-443.63"/>
</g>
<!-- 135410864135984 -->
<g id="node27" class="node">
<title>135410864135984</title>
<ellipse fill="none" stroke="black" cx="2077.35" cy="-489" rx="70.37" ry="18"/>
<text text-anchor="middle" x="2077.35" y="-485.5" font-family="Times,serif" font-size="15.00">GC/Triggered</text>
</g>
<!-- 135410864135744&#45;&#45;135410864135984 -->
<g id="edge17" class="edge">
<title>135410864135744&#45;&#45;135410864135984</title>
<path fill="none" stroke="black" d="M1932.77,-449.69C1957.79,-456.54 1997.36,-467.37 2028.62,-475.93"/>
</g>
<!-- 135410864136080 -->
<g id="node28" class="node">
<title>135410864136080</title>
<ellipse fill="none" stroke="black" cx="2077.35" cy="-435" rx="107.02" ry="18"/>
<text text-anchor="middle" x="2077.35" y="-431.5" font-family="Times,serif" font-size="15.00">AssemblyLoader/Start</text>
</g>
<!-- 135410864135744&#45;&#45;135410864136080 -->
<g id="edge18" class="edge">
<title>135410864135744&#45;&#45;135410864136080</title>
<path fill="none" stroke="black" d="M1934.59,-441.75C1945.75,-441.22 1959.56,-440.56 1974.14,-439.87"/>
</g>
<!-- 135410864136128 -->
<g id="node30" class="node">
<title>135410864136128</title>
<ellipse fill="black" stroke="black" cx="1907.34" cy="-397" rx="2.7" ry="2.7"/>
</g>
<!-- 135410864135504&#45;&#45;135410864136128 -->
<g id="edge21" class="edge">
<title>135410864135504&#45;&#45;135410864136128</title>
<path fill="none" stroke="black" d="M1765.75,-393.62C1808.58,-394.65 1890.57,-396.62 1904.35,-396.95"/>
</g>
<!-- 135410864136224 -->
<g id="node31" class="node">
<title>135410864136224</title>
<ellipse fill="none" stroke="black" cx="1907.34" cy="-358" rx="27" ry="18"/>
<text text-anchor="middle" x="1907.34" y="-354.5" font-family="Times,serif" font-size="15.00">seq</text>
</g>
<!-- 135410864135504&#45;&#45;135410864136224 -->
<g id="edge69" class="edge">
<title>135410864135504&#45;&#45;135410864136224</title>
<path fill="none" stroke="black" d="M1764.66,-387.76C1796.16,-381.14 1850.04,-369.83 1881.49,-363.22"/>
</g>
<!-- 135410864136464 -->
<g id="node32" class="node">
<title>135410864136464</title>
<ellipse fill="none" stroke="black" cx="2077.35" cy="-366" rx="27" ry="18"/>
<text text-anchor="middle" x="2077.35" y="-362.5" font-family="Times,serif" font-size="15.00">and</text>
</g>
<!-- 135410864136224&#45;&#45;135410864136464 -->
<g id="edge65" class="edge">
<title>135410864136224&#45;&#45;135410864136464</title>
<path fill="none" stroke="black" d="M1934.59,-359.25C1966.15,-360.75 2018.8,-363.26 2050.28,-364.76"/>
</g>
<!-- 135410864280272 -->
<g id="node76" class="node">
<title>135410864280272</title>
<ellipse fill="none" stroke="black" cx="2077.35" cy="-312" rx="27" ry="18"/>
<text text-anchor="middle" x="2077.35" y="-308.5" font-family="Times,serif" font-size="15.00">xor</text>
</g>
<!-- 135410864136224&#45;&#45;135410864280272 -->
<g id="edge68" class="edge">
<title>135410864136224&#45;&#45;135410864280272</title>
<path fill="none" stroke="black" d="M1932.77,-351.31C1964.71,-342.57 2020.34,-327.34 2052.16,-318.62"/>
</g>
<!-- 135410864136704 -->
<g id="node33" class="node">
<title>135410864136704</title>
<ellipse fill="none" stroke="black" cx="2323.2" cy="-420" rx="27" ry="18"/>
<text text-anchor="middle" x="2323.2" y="-416.5" font-family="Times,serif" font-size="15.00">xor</text>
</g>
<!-- 135410864136464&#45;&#45;135410864136704 -->
<g id="edge26" class="edge">
<title>135410864136464&#45;&#45;135410864136704</title>
<path fill="none" stroke="black" d="M2103.07,-371.47C2149.81,-381.82 2250.62,-404.15 2297.41,-414.51"/>
</g>
<!-- 135410864136800 -->
<g id="node38" class="node">
<title>135410864136800</title>
<ellipse fill="none" stroke="black" cx="2323.2" cy="-362" rx="27" ry="18"/>
<text text-anchor="middle" x="2323.2" y="-358.5" font-family="Times,serif" font-size="15.00">seq</text>
</g>
<!-- 135410864136464&#45;&#45;135410864136800 -->
<g id="edge64" class="edge">
<title>135410864136464&#45;&#45;135410864136800</title>
<path fill="none" stroke="black" d="M2104.44,-365.57C2151.26,-364.8 2248.98,-363.2 2295.92,-362.43"/>
</g>
<!-- 135410864136944 -->
<g id="node34" class="node">
<title>135410864136944</title>
<ellipse fill="black" stroke="black" cx="2509.3" cy="-459" rx="2.7" ry="2.7"/>
</g>
<!-- 135410864136704&#45;&#45;135410864136944 -->
<g id="edge22" class="edge">
<title>135410864136704&#45;&#45;135410864136944</title>
<path fill="none" stroke="black" d="M2349.03,-425.26C2395.35,-435.07 2491.62,-455.47 2506.38,-458.59"/>
</g>
<!-- 135410864137040 -->
<g id="node35" class="node">
<title>135410864137040</title>
<ellipse fill="none" stroke="black" cx="2509.3" cy="-420" rx="47.01" ry="18"/>
<text text-anchor="middle" x="2509.3" y="-416.5" font-family="Times,serif" font-size="15.00">xor loop</text>
</g>
<!-- 135410864136704&#45;&#45;135410864137040 -->
<g id="edge25" class="edge">
<title>135410864136704&#45;&#45;135410864137040</title>
<path fill="none" stroke="black" d="M2350.58,-420C2379.61,-420 2426.83,-420 2462.04,-420"/>
</g>
<!-- 135410864137280 -->
<g id="node36" class="node">
<title>135410864137280</title>
<ellipse fill="none" stroke="black" cx="2719.02" cy="-459" rx="126.44" ry="18"/>
<text text-anchor="middle" x="2719.02" y="-455.5" font-family="Times,serif" font-size="15.00">Method/InliningSucceeded</text>
</g>
<!-- 135410864137040&#45;&#45;135410864137280 -->
<g id="edge23" class="edge">
<title>135410864137040&#45;&#45;135410864137280</title>
<path fill="none" stroke="black" d="M2552.33,-427.89C2577.94,-432.7 2611.43,-438.99 2641.59,-444.65"/>
</g>
<!-- 135410864137376 -->
<g id="node37" class="node">
<title>135410864137376</title>
<ellipse fill="black" stroke="black" cx="2719.02" cy="-420" rx="2.7" ry="2.7"/>
</g>
<!-- 135410864137040&#45;&#45;135410864137376 -->
<g id="edge24" class="edge">
<title>135410864137040&#45;&#45;135410864137376</title>
<path fill="none" stroke="black" d="M2556.65,-420C2613.09,-420 2702.61,-420 2716.25,-420"/>
</g>
<!-- 135410864137424 -->
<g id="node39" class="node">
<title>135410864137424</title>
<ellipse fill="none" stroke="black" cx="2509.3" cy="-362" rx="27" ry="18"/>
<text text-anchor="middle" x="2509.3" y="-358.5" font-family="Times,serif" font-size="15.00">xor</text>
</g>
<!-- 135410864136800&#45;&#45;135410864137424 -->
<g id="edge31" class="edge">
<title>135410864136800&#45;&#45;135410864137424</title>
<path fill="none" stroke="black" d="M2350.58,-362C2385.67,-362 2447.35,-362 2482.27,-362"/>
</g>
<!-- 135410864137520 -->
<g id="node44" class="node">
<title>135410864137520</title>
<ellipse fill="none" stroke="black" cx="2509.3" cy="-304" rx="47.01" ry="18"/>
<text text-anchor="middle" x="2509.3" y="-300.5" font-family="Times,serif" font-size="15.00">xor loop</text>
</g>
<!-- 135410864136800&#45;&#45;135410864137520 -->
<g id="edge63" class="edge">
<title>135410864136800&#45;&#45;135410864137520</title>
<path fill="none" stroke="black" d="M2347.89,-354.54C2379.45,-344.59 2435.58,-326.91 2472.36,-315.32"/>
</g>
<!-- 135410864137664 -->
<g id="node40" class="node">
<title>135410864137664</title>
<ellipse fill="black" stroke="black" cx="2719.02" cy="-397" rx="2.7" ry="2.7"/>
</g>
<!-- 135410864137424&#45;&#45;135410864137664 -->
<g id="edge27" class="edge">
<title>135410864137424&#45;&#45;135410864137664</title>
<path fill="none" stroke="black" d="M2535.77,-366.29C2587.33,-374.98 2700.54,-394.06 2716.21,-396.69"/>
</g>
<!-- 135410864137760 -->
<g id="node41" class="node">
<title>135410864137760</title>
<ellipse fill="none" stroke="black" cx="2719.02" cy="-358" rx="47.01" ry="18"/>
<text text-anchor="middle" x="2719.02" y="-354.5" font-family="Times,serif" font-size="15.00">xor loop</text>
</g>
<!-- 135410864137424&#45;&#45;135410864137760 -->
<g id="edge30" class="edge">
<title>135410864137424&#45;&#45;135410864137760</title>
<path fill="none" stroke="black" d="M2536.6,-361.49C2570.56,-360.84 2630.2,-359.69 2671.79,-358.89"/>
</g>
<!-- 135410864138000 -->
<g id="node42" class="node">
<title>135410864138000</title>
<ellipse fill="none" stroke="black" cx="2989.19" cy="-393" rx="107.91" ry="18"/>
<text text-anchor="middle" x="2989.19" y="-389.5" font-family="Times,serif" font-size="15.00">Method/InliningFailed</text>
</g>
<!-- 135410864137760&#45;&#45;135410864138000 -->
<g id="edge28" class="edge">
<title>135410864137760&#45;&#45;135410864138000</title>
<path fill="none" stroke="black" d="M2764,-363.74C2801.82,-368.68 2857.43,-375.93 2903.81,-381.99"/>
</g>
<!-- 135410864138096 -->
<g id="node43" class="node">
<title>135410864138096</title>
<ellipse fill="black" stroke="black" cx="2989.19" cy="-354" rx="2.7" ry="2.7"/>
</g>
<!-- 135410864137760&#45;&#45;135410864138096 -->
<g id="edge29" class="edge">
<title>135410864137760&#45;&#45;135410864138096</title>
<path fill="none" stroke="black" d="M2766.42,-357.31C2837.78,-356.24 2968.14,-354.3 2986.12,-354.03"/>
</g>
<!-- 135410864138144 -->
<g id="node45" class="node">
<title>135410864138144</title>
<ellipse fill="none" stroke="black" cx="2719.02" cy="-304" rx="27" ry="18"/>
<text text-anchor="middle" x="2719.02" y="-300.5" font-family="Times,serif" font-size="15.00">xor</text>
</g>
<!-- 135410864137520&#45;&#45;135410864138144 -->
<g id="edge61" class="edge">
<title>135410864137520&#45;&#45;135410864138144</title>
<path fill="none" stroke="black" d="M2556.65,-304C2598.26,-304 2657.86,-304 2691.76,-304"/>
</g>
<!-- 135410864284112 -->
<g id="node75" class="node">
<title>135410864284112</title>
<ellipse fill="black" stroke="black" cx="2719.02" cy="-265" rx="2.7" ry="2.7"/>
</g>
<!-- 135410864137520&#45;&#45;135410864284112 -->
<g id="edge62" class="edge">
<title>135410864137520&#45;&#45;135410864284112</title>
<path fill="none" stroke="black" d="M2552.33,-296.11C2608.29,-285.6 2701.88,-268.03 2716.17,-265.35"/>
</g>
<!-- 135410864290592 -->
<g id="node46" class="node">
<title>135410864290592</title>
<ellipse fill="none" stroke="black" cx="2989.19" cy="-308" rx="27" ry="18"/>
<text text-anchor="middle" x="2989.19" y="-304.5" font-family="Times,serif" font-size="15.00">seq</text>
</g>
<!-- 135410864138144&#45;&#45;135410864290592 -->
<g id="edge35" class="edge">
<title>135410864138144&#45;&#45;135410864290592</title>
<path fill="none" stroke="black" d="M2746.22,-304.39C2797.49,-305.16 2910.53,-306.84 2961.88,-307.61"/>
</g>
<!-- 135410864138384 -->
<g id="node50" class="node">
<title>135410864138384</title>
<ellipse fill="none" stroke="black" cx="2989.19" cy="-200" rx="27" ry="18"/>
<text text-anchor="middle" x="2989.19" y="-196.5" font-family="Times,serif" font-size="15.00">seq</text>
</g>
<!-- 135410864138144&#45;&#45;135410864138384 -->
<g id="edge60" class="edge">
<title>135410864138144&#45;&#45;135410864138384</title>
<path fill="none" stroke="black" d="M2742.88,-295.13C2793.55,-275.48 2914.77,-228.47 2965.39,-208.84"/>
</g>
<!-- 135410864289728 -->
<g id="node47" class="node">
<title>135410864289728</title>
<ellipse fill="none" stroke="black" cx="3477.56" cy="-389" rx="165.26" ry="18"/>
<text text-anchor="middle" x="3477.56" y="-385.5" font-family="Times,serif" font-size="15.00">AssemblyLoader/KnownPathProbed</text>
</g>
<!-- 135410864290592&#45;&#45;135410864289728 -->
<g id="edge32" class="edge">
<title>135410864290592&#45;&#45;135410864289728</title>
<path fill="none" stroke="black" d="M3015.66,-312.24C3083.68,-323.57 3272.16,-354.96 3385.92,-373.91"/>
</g>
<!-- 135410864282240 -->
<g id="node48" class="node">
<title>135410864282240</title>
<ellipse fill="none" stroke="black" cx="3477.56" cy="-335" rx="344.82" ry="18"/>
<text text-anchor="middle" x="3477.56" y="-331.5" font-family="Times,serif" font-size="15.00">AssemblyLoader/ResolutionAttemptedFindInLoadContextAssemblyNotFound</text>
</g>
<!-- 135410864290592&#45;&#45;135410864282240 -->
<g id="edge33" class="edge">
<title>135410864290592&#45;&#45;135410864282240</title>
<path fill="none" stroke="black" d="M3016.34,-309.45C3059.75,-311.86 3150.83,-316.92 3240.59,-321.9"/>
</g>
<!-- 135410864290256 -->
<g id="node49" class="node">
<title>135410864290256</title>
<ellipse fill="none" stroke="black" cx="3477.56" cy="-281" rx="309.84" ry="18"/>
<text text-anchor="middle" x="3477.56" y="-277.5" font-family="Times,serif" font-size="15.00">AssemblyLoader/ResolutionAttemptedApplicationAssembliesSuccess</text>
</g>
<!-- 135410864290592&#45;&#45;135410864290256 -->
<g id="edge34" class="edge">
<title>135410864290592&#45;&#45;135410864290256</title>
<path fill="none" stroke="black" d="M3016.34,-306.55C3061.72,-304.03 3159.2,-298.62 3252.82,-293.42"/>
</g>
<!-- 135410864138624 -->
<g id="node51" class="node">
<title>135410864138624</title>
<ellipse fill="none" stroke="black" cx="3477.56" cy="-227" rx="27" ry="18"/>
<text text-anchor="middle" x="3477.56" y="-223.5" font-family="Times,serif" font-size="15.00">xor</text>
</g>
<!-- 135410864138384&#45;&#45;135410864138624 -->
<g id="edge38" class="edge">
<title>135410864138384&#45;&#45;135410864138624</title>
<path fill="none" stroke="black" d="M3016.34,-201.45C3100.89,-206.15 3366.27,-220.88 3450.58,-225.56"/>
</g>
<!-- 135410864138720 -->
<g id="node54" class="node">
<title>135410864138720</title>
<ellipse fill="none" stroke="black" cx="3477.56" cy="-173" rx="27" ry="18"/>
<text text-anchor="middle" x="3477.56" y="-169.5" font-family="Times,serif" font-size="15.00">xor</text>
</g>
<!-- 135410864138384&#45;&#45;135410864138720 -->
<g id="edge54" class="edge">
<title>135410864138384&#45;&#45;135410864138720</title>
<path fill="none" stroke="black" d="M3016.34,-198.55C3100.89,-193.85 3366.27,-179.12 3450.58,-174.44"/>
</g>
<!-- 135410864291792 -->
<g id="node70" class="node">
<title>135410864291792</title>
<ellipse fill="none" stroke="black" cx="3477.56" cy="-110" rx="27" ry="18"/>
<text text-anchor="middle" x="3477.56" y="-106.5" font-family="Times,serif" font-size="15.00">xor</text>
</g>
<!-- 135410864138384&#45;&#45;135410864291792 -->
<g id="edge59" class="edge">
<title>135410864138384&#45;&#45;135410864291792</title>
<path fill="none" stroke="black" d="M3015.32,-195.35C3098.96,-179.87 3367.44,-130.19 3451.29,-114.68"/>
</g>
<!-- 135410864138864 -->
<g id="node52" class="node">
<title>135410864138864</title>
<ellipse fill="black" stroke="black" cx="3954.12" cy="-266" rx="2.7" ry="2.7"/>
</g>
<!-- 135410864138624&#45;&#45;135410864138864 -->
<g id="edge36" class="edge">
<title>135410864138624&#45;&#45;135410864138864</title>
<path fill="none" stroke="black" d="M3504.41,-229.12C3599.19,-236.91 3923.53,-263.57 3951.23,-265.84"/>
</g>
<!-- 135410864138960 -->
<g id="node53" class="node">
<title>135410864138960</title>
<ellipse fill="none" stroke="black" cx="3954.12" cy="-227" rx="95.79" ry="18"/>
<text text-anchor="middle" x="3954.12" y="-223.5" font-family="Times,serif" font-size="15.00">GC/SuspendEEStop</text>
</g>
<!-- 135410864138624&#45;&#45;135410864138960 -->
<g id="edge37" class="edge">
<title>135410864138624&#45;&#45;135410864138960</title>
<path fill="none" stroke="black" d="M3504.75,-227C3570.91,-227 3747.38,-227 3858.17,-227"/>
</g>
<!-- 135410864139152 -->
<g id="node55" class="node">
<title>135410864139152</title>
<ellipse fill="black" stroke="black" cx="3954.12" cy="-188" rx="2.7" ry="2.7"/>
</g>
<!-- 135410864138720&#45;&#45;135410864139152 -->
<g id="edge39" class="edge">
<title>135410864138720&#45;&#45;135410864139152</title>
<path fill="none" stroke="black" d="M3504.75,-173.83C3599.96,-176.84 3923.59,-187.07 3951.23,-187.94"/>
</g>
<!-- 135410864139248 -->
<g id="node56" class="node">
<title>135410864139248</title>
<ellipse fill="none" stroke="black" cx="3954.12" cy="-149" rx="27" ry="18"/>
<text text-anchor="middle" x="3954.12" y="-145.5" font-family="Times,serif" font-size="15.00">xor</text>
</g>
<!-- 135410864138720&#45;&#45;135410864139248 -->
<g id="edge53" class="edge">
<title>135410864138720&#45;&#45;135410864139248</title>
<path fill="none" stroke="black" d="M3504.75,-171.68C3587.72,-167.48 3844.15,-154.51 3927.01,-150.32"/>
</g>
<!-- 135410864420944 -->
<g id="node57" class="node">
<title>135410864420944</title>
<ellipse fill="none" stroke="black" cx="4258.34" cy="-197" rx="172.16" ry="18"/>
<text text-anchor="middle" x="4258.34" y="-193.5" font-family="Times,serif" font-size="15.00">Method/MemoryAllocatedForJitCode</text>
</g>
<!-- 135410864139248&#45;&#45;135410864420944 -->
<g id="edge40" class="edge">
<title>135410864139248&#45;&#45;135410864420944</title>
<path fill="none" stroke="black" d="M3980.62,-153.05C4020.47,-159.38 4099.49,-171.93 4162.93,-182"/>
</g>
<!-- 135410864139488 -->
<g id="node58" class="node">
<title>135410864139488</title>
<ellipse fill="none" stroke="black" cx="4258.34" cy="-143" rx="27" ry="18"/>
<text text-anchor="middle" x="4258.34" y="-139.5" font-family="Times,serif" font-size="15.00">seq</text>
</g>
<!-- 135410864139248&#45;&#45;135410864139488 -->
<g id="edge52" class="edge">
<title>135410864139248&#45;&#45;135410864139488</title>
<path fill="none" stroke="black" d="M3981.15,-148.48C4038.27,-147.35 4174.1,-144.65 4231.27,-143.52"/>
</g>
<!-- 135410864421040 -->
<g id="node59" class="node">
<title>135410864421040</title>
<ellipse fill="none" stroke="black" cx="4493.67" cy="-201" rx="27" ry="18"/>
<text text-anchor="middle" x="4493.67" y="-197.5" font-family="Times,serif" font-size="15.00">xor</text>
</g>
<!-- 135410864139488&#45;&#45;135410864421040 -->
<g id="edge43" class="edge">
<title>135410864139488&#45;&#45;135410864421040</title>
<path fill="none" stroke="black" d="M4283.87,-149.1C4328.68,-160.24 4423.29,-183.75 4468.12,-194.9"/>
</g>
<!-- 135410864421808 -->
<g id="node62" class="node">
<title>135410864421808</title>
<ellipse fill="none" stroke="black" cx="4493.67" cy="-143" rx="27" ry="18"/>
<text text-anchor="middle" x="4493.67" y="-139.5" font-family="Times,serif" font-size="15.00">xor</text>
</g>
<!-- 135410864139488&#45;&#45;135410864421808 -->
<g id="edge46" class="edge">
<title>135410864139488&#45;&#45;135410864421808</title>
<path fill="none" stroke="black" d="M4285.65,-143C4330.59,-143 4421.59,-143 4466.46,-143"/>
</g>
<!-- 135410864417776 -->
<g id="node65" class="node">
<title>135410864417776</title>
<ellipse fill="none" stroke="black" cx="4493.67" cy="-84" rx="27" ry="18"/>
<text text-anchor="middle" x="4493.67" y="-80.5" font-family="Times,serif" font-size="15.00">xor</text>
</g>
<!-- 135410864139488&#45;&#45;135410864417776 -->
<g id="edge51" class="edge">
<title>135410864139488&#45;&#45;135410864417776</title>
<path fill="none" stroke="black" d="M4283.87,-136.8C4328.68,-125.47 4423.29,-101.54 4468.12,-90.21"/>
</g>
<!-- 135410864421376 -->
<g id="node60" class="node">
<title>135410864421376</title>
<ellipse fill="black" stroke="black" cx="4653.95" cy="-240" rx="2.7" ry="2.7"/>
</g>
<!-- 135410864421040&#45;&#45;135410864421376 -->
<g id="edge41" class="edge">
<title>135410864421040&#45;&#45;135410864421376</title>
<path fill="none" stroke="black" d="M4519.4,-207.09C4560.09,-217.12 4637.98,-236.31 4651.07,-239.53"/>
</g>
<!-- 135410864420800 -->
<g id="node61" class="node">
<title>135410864420800</title>
<ellipse fill="none" stroke="black" cx="4653.95" cy="-201" rx="49.17" ry="18"/>
<text text-anchor="middle" x="4653.95" y="-197.5" font-family="Times,serif" font-size="15.00">GC/Start</text>
</g>
<!-- 135410864421040&#45;&#45;135410864420800 -->
<g id="edge42" class="edge">
<title>135410864421040&#45;&#45;135410864420800</title>
<path fill="none" stroke="black" d="M4520.81,-201C4543.46,-201 4576.84,-201 4604.38,-201"/>
</g>
<!-- 135410864279216 -->
<g id="node63" class="node">
<title>135410864279216</title>
<ellipse fill="black" stroke="black" cx="4653.95" cy="-162" rx="2.7" ry="2.7"/>
</g>
<!-- 135410864421808&#45;&#45;135410864279216 -->
<g id="edge44" class="edge">
<title>135410864421808&#45;&#45;135410864279216</title>
<path fill="none" stroke="black" d="M4520.45,-146.09C4561.45,-151.02 4638.21,-160.23 4651.1,-161.78"/>
</g>
<!-- 135410864290304 -->
<g id="node64" class="node">
<title>135410864290304</title>
<ellipse fill="none" stroke="black" cx="4653.95" cy="-123" rx="97.07" ry="18"/>
<text text-anchor="middle" x="4653.95" y="-119.5" font-family="Times,serif" font-size="15.00">GC/SuspendEEStart</text>
</g>
<!-- 135410864421808&#45;&#45;135410864290304 -->
<g id="edge45" class="edge">
<title>135410864421808&#45;&#45;135410864290304</title>
<path fill="none" stroke="black" d="M4520.45,-139.74C4535,-137.9 4554.04,-135.5 4573.13,-133.09"/>
</g>
<!-- 135410864290832 -->
<g id="node66" class="node">
<title>135410864290832</title>
<ellipse fill="black" stroke="black" cx="4653.95" cy="-84" rx="2.7" ry="2.7"/>
</g>
<!-- 135410864417776&#45;&#45;135410864290832 -->
<g id="edge47" class="edge">
<title>135410864417776&#45;&#45;135410864290832</title>
<path fill="none" stroke="black" d="M4520.81,-84C4561.9,-84 4638.28,-84 4651.11,-84"/>
</g>
<!-- 135410864283008 -->
<g id="node67" class="node">
<title>135410864283008</title>
<ellipse fill="none" stroke="black" cx="4653.95" cy="-45" rx="27" ry="18"/>
<text text-anchor="middle" x="4653.95" y="-41.5" font-family="Times,serif" font-size="15.00">seq</text>
</g>
<!-- 135410864417776&#45;&#45;135410864283008 -->
<g id="edge50" class="edge">
<title>135410864417776&#45;&#45;135410864283008</title>
<path fill="none" stroke="black" d="M4519.4,-77.91C4549.14,-70.58 4598.74,-58.36 4628.4,-51.05"/>
</g>
<!-- 135410864276096 -->
<g id="node68" class="node">
<title>135410864276096</title>
<ellipse fill="none" stroke="black" cx="4905.37" cy="-72" rx="118.26" ry="18"/>
<text text-anchor="middle" x="4905.37" y="-68.5" font-family="Times,serif" font-size="15.00">GC/PinObjectAtGCTime</text>
</g>
<!-- 135410864283008&#45;&#45;135410864276096 -->
<g id="edge48" class="edge">
<title>135410864283008&#45;&#45;135410864276096</title>
<path fill="none" stroke="black" d="M4680.71,-47.79C4710.83,-51.05 4762.44,-56.64 4808.5,-61.62"/>
</g>
<!-- 135410864291696 -->
<g id="node69" class="node">
<title>135410864291696</title>
<ellipse fill="none" stroke="black" cx="4905.37" cy="-18" rx="47.89" ry="18"/>
<text text-anchor="middle" x="4905.37" y="-14.5" font-family="Times,serif" font-size="15.00">GC/Stop</text>
</g>
<!-- 135410864283008&#45;&#45;135410864291696 -->
<g id="edge49" class="edge">
<title>135410864283008&#45;&#45;135410864291696</title>
<path fill="none" stroke="black" d="M4680.71,-42.21C4722.78,-37.66 4806.77,-28.57 4859.01,-22.91"/>
</g>
<!-- 135410864276336 -->
<g id="node71" class="node">
<title>135410864276336</title>
<ellipse fill="black" stroke="black" cx="3954.12" cy="-110" rx="2.7" ry="2.7"/>
</g>
<!-- 135410864291792&#45;&#45;135410864276336 -->
<g id="edge55" class="edge">
<title>135410864291792&#45;&#45;135410864276336</title>
<path fill="none" stroke="black" d="M3504.75,-110C3599.96,-110 3923.59,-110 3951.23,-110"/>
</g>
<!-- 135410864278016 -->
<g id="node72" class="node">
<title>135410864278016</title>
<ellipse fill="none" stroke="black" cx="3954.12" cy="-71" rx="27" ry="18"/>
<text text-anchor="middle" x="3954.12" y="-67.5" font-family="Times,serif" font-size="15.00">seq</text>
</g>
<!-- 135410864291792&#45;&#45;135410864278016 -->
<g id="edge58" class="edge">
<title>135410864291792&#45;&#45;135410864278016</title>
<path fill="none" stroke="black" d="M3504.41,-107.88C3587.1,-101.08 3844.52,-79.92 3927.24,-73.13"/>
</g>
<!-- 135410864284256 -->
<g id="node73" class="node">
<title>135410864284256</title>
<ellipse fill="none" stroke="black" cx="4258.34" cy="-77" rx="91.95" ry="18"/>
<text text-anchor="middle" x="4258.34" y="-73.5" font-family="Times,serif" font-size="15.00">GC/RestartEEStart</text>
</g>
<!-- 135410864278016&#45;&#45;135410864284256 -->
<g id="edge56" class="edge">
<title>135410864278016&#45;&#45;135410864284256</title>
<path fill="none" stroke="black" d="M3981.15,-71.52C4022.02,-72.33 4103.19,-73.94 4167.01,-75.21"/>
</g>
<!-- 135410864282624 -->
<g id="node74" class="node">
<title>135410864282624</title>
<ellipse fill="none" stroke="black" cx="4258.34" cy="-23" rx="91.06" ry="18"/>
<text text-anchor="middle" x="4258.34" y="-19.5" font-family="Times,serif" font-size="15.00">GC/RestartEEStop</text>
</g>
<!-- 135410864278016&#45;&#45;135410864282624 -->
<g id="edge57" class="edge">
<title>135410864278016&#45;&#45;135410864282624</title>
<path fill="none" stroke="black" d="M3980.62,-66.95C4025.66,-59.8 4120.76,-44.69 4186.82,-34.2"/>
</g>
<!-- 135410864290784 -->
<g id="node77" class="node">
<title>135410864290784</title>
<ellipse fill="black" stroke="black" cx="2323.2" cy="-316" rx="2.7" ry="2.7"/>
</g>
<!-- 135410864280272&#45;&#45;135410864290784 -->
<g id="edge66" class="edge">
<title>135410864280272&#45;&#45;135410864290784</title>
<path fill="none" stroke="black" d="M2104.44,-312.43C2163.42,-313.4 2303.2,-315.69 2320.45,-315.97"/>
</g>
<!-- 135410864287904 -->
<g id="node78" class="node">
<title>135410864287904</title>
<ellipse fill="none" stroke="black" cx="2323.2" cy="-277" rx="102.69" ry="18"/>
<text text-anchor="middle" x="2323.2" y="-273.5" font-family="Times,serif" font-size="15.00">Method/LoadVerbose</text>
</g>
<!-- 135410864280272&#45;&#45;135410864287904 -->
<g id="edge67" class="edge">
<title>135410864280272&#45;&#45;135410864287904</title>
<path fill="none" stroke="black" d="M2103.98,-308.32C2136.75,-303.62 2195.01,-295.26 2243.09,-288.36"/>
</g>
<!-- 135410864280032 -->
<g id="node80" class="node">
<title>135410864280032</title>
<ellipse fill="none" stroke="black" cx="1225.46" cy="-439" rx="107.91" ry="18"/>
<text text-anchor="middle" x="1225.46" y="-435.5" font-family="Times,serif" font-size="15.00">Loader/AssemblyLoad</text>
</g>
<!-- 135410864290448&#45;&#45;135410864280032 -->
<g id="edge74" class="edge">
<title>135410864290448&#45;&#45;135410864280032</title>
<path fill="none" stroke="black" d="M1036.3,-415.26C1061.75,-418.47 1102.08,-423.56 1138.88,-428.2"/>
</g>
<!-- 135410864289344 -->
<g id="node81" class="node">
<title>135410864289344</title>
<ellipse fill="none" stroke="black" cx="1225.46" cy="-385" rx="98.85" ry="18"/>
<text text-anchor="middle" x="1225.46" y="-381.5" font-family="Times,serif" font-size="15.00">Loader/ModuleLoad</text>
</g>
<!-- 135410864290448&#45;&#45;135410864289344 -->
<g id="edge75" class="edge">
<title>135410864290448&#45;&#45;135410864289344</title>
<path fill="none" stroke="black" d="M1036.3,-408.74C1062.86,-405.39 1105.63,-399.99 1143.68,-395.19"/>
</g>
<!-- 135410864289152 -->
<g id="node82" class="node">
<title>135410864289152</title>
<ellipse fill="none" stroke="black" cx="1225.46" cy="-331" rx="132.95" ry="18"/>
<text text-anchor="middle" x="1225.46" y="-327.5" font-family="Times,serif" font-size="15.00">Loader/DomainModuleLoad</text>
</g>
<!-- 135410864290448&#45;&#45;135410864289152 -->
<g id="edge76" class="edge">
<title>135410864290448&#45;&#45;135410864289152</title>
<path fill="none" stroke="black" d="M1033.39,-403.33C1068.21,-390.15 1135.14,-364.81 1179.81,-347.9"/>
</g>
<!-- 135410864290880 -->
<g id="node84" class="node">
<title>135410864290880</title>
<ellipse fill="none" stroke="black" cx="835.21" cy="-458" rx="91.06" ry="18"/>
<text text-anchor="middle" x="835.21" y="-454.5" font-family="Times,serif" font-size="15.00">GC/FinalizersStart</text>
</g>
<!-- 135410864288432&#45;&#45;135410864290880 -->
<g id="edge80" class="edge">
<title>135410864288432&#45;&#45;135410864290880</title>
<path fill="none" stroke="black" d="M596.48,-458C630.65,-458 692.1,-458 743.96,-458"/>
</g>
<!-- 135410864290640 -->
<g id="node85" class="node">
<title>135410864290640</title>
<ellipse fill="none" stroke="black" cx="835.21" cy="-404" rx="90.17" ry="18"/>
<text text-anchor="middle" x="835.21" y="-400.5" font-family="Times,serif" font-size="15.00">GC/FinalizersStop</text>
</g>
<!-- 135410864288432&#45;&#45;135410864290640 -->
<g id="edge81" class="edge">
<title>135410864288432&#45;&#45;135410864290640</title>
<path fill="none" stroke="black" d="M595.52,-452.82C635.72,-444.6 715.35,-428.31 771.56,-416.81"/>
</g>
</g>
</svg>
