<?xml version="1.0" encoding="UTF-8" standalone="no"?>
<!DOCTYPE svg PUBLIC "-//W3C//DTD SVG 1.1//EN"
 "http://www.w3.org/Graphics/SVG/1.1/DTD/svg11.dtd">
<!-- Generated by graphviz version 2.43.0 (0)
 -->
<!-- Title: alpha_classic_net_1702929193.80431 Pages: 1 -->
<svg width="1418pt" height="70pt"
 viewBox="0.00 0.00 1418.00 70.00" xmlns="http://www.w3.org/2000/svg" xmlns:xlink="http://www.w3.org/1999/xlink">
<g id="graph0" class="graph" transform="scale(1 1) rotate(0) translate(4 66)">
<title>alpha_classic_net_1702929193.80431</title>
<polygon fill="white" stroke="transparent" points="-4,4 -4,-66 1414,-66 1414,4 -4,4"/>
<!-- 135410842283904 -->
<g id="node1" class="node">
<title>135410842283904</title>
<polygon fill="white" stroke="black" points="646,-49 570,-49 570,-13 646,-13 646,-49"/>
<text text-anchor="middle" x="608" y="-27.9" font-family="Times,serif" font-size="12.00">GC/GCStart</text>
</g>
<!-- 135410842280208 -->
<g id="node9" class="node">
<title>135410842280208</title>
<ellipse fill="white" stroke="black" cx="709" cy="-31" rx="27" ry="27"/>
</g>
<!-- 135410842283904&#45;&gt;135410842280208 -->
<g id="edge7" class="edge">
<title>135410842283904&#45;&gt;135410842280208</title>
<path fill="none" stroke="black" d="M646.15,-31C654.48,-31 663.31,-31 671.61,-31"/>
<polygon fill="black" stroke="black" points="671.77,-34.5 681.77,-31 671.77,-27.5 671.77,-34.5"/>
</g>
<!-- 135410842276800 -->
<g id="node2" class="node">
<title>135410842276800</title>
<polygon fill="white" stroke="black" points="1312,-49 1205,-49 1205,-13 1312,-13 1312,-49"/>
<text text-anchor="middle" x="1258.5" y="-27.9" font-family="Times,serif" font-size="12.00">GC/RestartEEStop</text>
</g>
<!-- 135410842271904 -->
<g id="node13" class="node">
<title>135410842271904</title>
<ellipse fill="white" stroke="black" cx="1379" cy="-31" rx="27" ry="27"/>
<ellipse fill="none" stroke="black" cx="1379" cy="-31" rx="31" ry="31"/>
<text text-anchor="start" x="1369" y="-22.9" font-family="Times,serif" font-size="32.00">■</text>
</g>
<!-- 135410842276800&#45;&gt;135410842271904 -->
<g id="edge9" class="edge">
<title>135410842276800&#45;&gt;135410842271904</title>
<path fill="none" stroke="black" d="M1312.17,-31C1320.77,-31 1329.56,-31 1337.81,-31"/>
<polygon fill="black" stroke="black" points="1337.9,-34.5 1347.9,-31 1337.9,-27.5 1337.9,-34.5"/>
</g>
<!-- 135410842280448 -->
<g id="node3" class="node">
<title>135410842280448</title>
<polygon fill="white" stroke="black" points="846,-49 772,-49 772,-13 846,-13 846,-49"/>
<text text-anchor="middle" x="809" y="-27.9" font-family="Times,serif" font-size="12.00">GC/GCEnd</text>
</g>
<!-- 135410842277568 -->
<g id="node8" class="node">
<title>135410842277568</title>
<ellipse fill="white" stroke="black" cx="909" cy="-31" rx="27" ry="27"/>
</g>
<!-- 135410842280448&#45;&gt;135410842277568 -->
<g id="edge6" class="edge">
<title>135410842280448&#45;&gt;135410842277568</title>
<path fill="none" stroke="black" d="M846.21,-31C854.49,-31 863.3,-31 871.59,-31"/>
<polygon fill="black" stroke="black" points="871.73,-34.5 881.73,-31 871.73,-27.5 871.73,-34.5"/>
</g>
<!-- 135410842283568 -->
<g id="node4" class="node">
<title>135410842283568</title>
<polygon fill="white" stroke="black" points="1079,-49 972,-49 972,-13 1079,-13 1079,-49"/>
<text text-anchor="middle" x="1025.5" y="-27.9" font-family="Times,serif" font-size="12.00">GC/RestartEEStart</text>
</g>
<!-- 135410842284144 -->
<g id="node10" class="node">
<title>135410842284144</title>
<ellipse fill="white" stroke="black" cx="1142" cy="-31" rx="27" ry="27"/>
</g>
<!-- 135410842283568&#45;&gt;135410842284144 -->
<g id="edge8" class="edge">
<title>135410842283568&#45;&gt;135410842284144</title>
<path fill="none" stroke="black" d="M1079.06,-31C1087.72,-31 1096.53,-31 1104.69,-31"/>
<polygon fill="black" stroke="black" points="1104.96,-34.5 1114.96,-31 1104.96,-27.5 1104.96,-34.5"/>
</g>
<!-- 135410842285584 -->
<g id="node5" class="node">
<title>135410842285584</title>
<polygon fill="white" stroke="black" points="444,-49 330,-49 330,-13 444,-13 444,-49"/>
<text text-anchor="middle" x="387" y="-27.9" font-family="Times,serif" font-size="12.00">GC/SuspendEEStop</text>
</g>
<!-- 135410842282368 -->
<g id="node12" class="node">
<title>135410842282368</title>
<ellipse fill="white" stroke="black" cx="507" cy="-31" rx="27" ry="27"/>
</g>
<!-- 135410842285584&#45;&gt;135410842282368 -->
<g id="edge11" class="edge">
<title>135410842285584&#45;&gt;135410842282368</title>
<path fill="none" stroke="black" d="M444.24,-31C452.9,-31 461.65,-31 469.73,-31"/>
<polygon fill="black" stroke="black" points="469.89,-34.5 479.89,-31 469.89,-27.5 469.89,-34.5"/>
</g>
<!-- 135410842284720 -->
<g id="node6" class="node">
<title>135410842284720</title>
<polygon fill="white" stroke="black" points="204,-49 90,-49 90,-13 204,-13 204,-49"/>
<text text-anchor="middle" x="147" y="-27.9" font-family="Times,serif" font-size="12.00">GC/SuspendEEStart</text>
</g>
<!-- 135410842279296 -->
<g id="node11" class="node">
<title>135410842279296</title>
<ellipse fill="white" stroke="black" cx="267" cy="-31" rx="27" ry="27"/>
</g>
<!-- 135410842284720&#45;&gt;135410842279296 -->
<g id="edge10" class="edge">
<title>135410842284720&#45;&gt;135410842279296</title>
<path fill="none" stroke="black" d="M204.24,-31C212.9,-31 221.65,-31 229.73,-31"/>
<polygon fill="black" stroke="black" points="229.89,-34.5 239.89,-31 229.89,-27.5 229.89,-34.5"/>
</g>
<!-- 135410842282080 -->
<g id="node7" class="node">
<title>135410842282080</title>
<ellipse fill="white" stroke="black" cx="27" cy="-31" rx="27" ry="27"/>
<text text-anchor="start" x="16.5" y="-22.3" font-family="Times,serif" font-size="34.00">●</text>
</g>
<!-- 135410842282080&#45;&gt;135410842284720 -->
<g id="edge12" class="edge">
<title>135410842282080&#45;&gt;135410842284720</title>
<path fill="none" stroke="black" d="M54.19,-31C61.88,-31 70.67,-31 79.69,-31"/>
<polygon fill="black" stroke="black" points="79.93,-34.5 89.93,-31 79.93,-27.5 79.93,-34.5"/>
</g>
<!-- 135410842277568&#45;&gt;135410842283568 -->
<g id="edge1" class="edge">
<title>135410842277568&#45;&gt;135410842283568</title>
<path fill="none" stroke="black" d="M936.27,-31C943.94,-31 952.68,-31 961.61,-31"/>
<polygon fill="black" stroke="black" points="961.71,-34.5 971.71,-31 961.71,-27.5 961.71,-34.5"/>
</g>
<!-- 135410842280208&#45;&gt;135410842280448 -->
<g id="edge2" class="edge">
<title>135410842280208&#45;&gt;135410842280448</title>
<path fill="none" stroke="black" d="M736,-31C743.91,-31 752.85,-31 761.68,-31"/>
<polygon fill="black" stroke="black" points="761.91,-34.5 771.91,-31 761.91,-27.5 761.91,-34.5"/>
</g>
<!-- 135410842284144&#45;&gt;135410842276800 -->
<g id="edge3" class="edge">
<title>135410842284144&#45;&gt;135410842276800</title>
<path fill="none" stroke="black" d="M1169.27,-31C1176.94,-31 1185.68,-31 1194.61,-31"/>
<polygon fill="black" stroke="black" points="1194.71,-34.5 1204.71,-31 1194.71,-27.5 1194.71,-34.5"/>
</g>
<!-- 135410842279296&#45;&gt;135410842285584 -->
<g id="edge4" class="edge">
<title>135410842279296&#45;&gt;135410842285584</title>
<path fill="none" stroke="black" d="M294.19,-31C301.88,-31 310.67,-31 319.69,-31"/>
<polygon fill="black" stroke="black" points="319.93,-34.5 329.93,-31 319.93,-27.5 319.93,-34.5"/>
</g>
<!-- 135410842282368&#45;&gt;135410842283904 -->
<g id="edge5" class="edge">
<title>135410842282368&#45;&gt;135410842283904</title>
<path fill="none" stroke="black" d="M534.01,-31C541.92,-31 550.86,-31 559.72,-31"/>
<polygon fill="black" stroke="black" points="560,-34.5 570,-31 560,-27.5 560,-34.5"/>
</g>
</g>
</svg>
